<?xml version="1.0" encoding="iso-8859-1"?>
<!-- Generator: Adobe Illustrator 18.1.1, SVG Export Plug-In . SVG Version: 6.00 Build 0)  -->
<svg version="1.1" id="Capa_1" xmlns="http://www.w3.org/2000/svg" xmlns:xlink="http://www.w3.org/1999/xlink" x="0px" y="0px"
	 viewBox="0 0 30.051 30.051" style="enable-background:new 0 0 30.051 30.051;" xml:space="preserve">
<g>
	<path d="M15.026,0C6.726,0,0,6.729,0,15.028c0,8.3,6.726,15.023,15.026,15.023c8.298,0,15.025-6.724,15.025-15.023
		C30.052,6.729,23.324,0,15.026,0z M15.026,27.542c-6.912,0-12.516-5.602-12.516-12.515c0-6.91,5.604-12.517,12.516-12.517
		c6.911,0,12.514,5.606,12.514,12.517C27.541,21.941,21.937,27.542,15.026,27.542z"/>
	<path d="M7.99,14.943l5.428-4.484c0,0,0.641-0.681,0.641,0.056c0,0.741,0,2.526,0,2.526s0.435,0,1.1,0c1.91,0,5.383,0,6.795,0
		c0,0,0.382-0.101,0.382,0.482c0,0.586,0,3.146,0,3.559c0,0.422-0.319,0.412-0.319,0.412c-1.374,0-4.964,0-6.807,0
		c-0.6,0-1.155,0-1.155,0s0,1.433,0,2.331c0,0.9-0.64,0.12-0.64,0.12S8.478,16.232,7.946,15.7C7.56,15.312,7.99,14.943,7.99,14.943z
		"/>
</g>
</svg>
